<svg width="49" height="48" viewBox="0 0 49 48" fill="none" xmlns="http://www.w3.org/2000/svg">
<rect width="48.4504" height="48" fill="black"/>
<path fill-rule="evenodd" clip-rule="evenodd" d="M31.4188 14.3385C31.0726 13.7795 31.5233 13.2762 31.9556 13.0089L24.3814 13.002C18.0957 13.002 13 18.0914 13 24.3692C13 30.6472 18.0957 35.7368 24.3814 35.7368L35.7368 35.7109V27.452H25.268C23.5634 27.452 22.1815 26.0719 22.1815 24.3692C22.1815 22.6669 23.5634 21.2868 25.268 21.2868L35.7368 21.27V13.002L33.3621 13L32.6124 13.472C32.6116 13.4569 32.5531 13.4241 32.4861 13.4135C32.4192 13.4029 32.3493 13.4231 32.2858 13.4622C32.143 13.5506 32.0802 13.6528 32.1473 13.7612C32.2188 13.8766 32.4337 13.8023 32.7005 13.7101C33.1377 13.5589 33.7144 13.3595 34.0289 13.8671C34.3104 14.3218 34.1448 14.8512 33.383 15.3219C32.9071 15.616 32.288 15.7853 31.9481 15.3093L32.7319 14.8249C32.729 14.8324 32.7981 14.8743 32.8766 14.8851C32.954 14.8949 33.0409 14.8758 33.1203 14.8267C33.2473 14.7483 33.3562 14.6232 33.2606 14.4689C33.1756 14.3317 32.9553 14.4117 32.6872 14.5091C32.2704 14.6604 31.738 14.8538 31.4188 14.3385ZM32.7336 14.8239C32.7327 14.8241 32.7321 14.8244 32.7319 14.8249L32.7336 14.8239ZM19.3107 23.9332L20.0763 23.46L18.7224 21.2747L17.8972 21.7847L18.5484 22.8355C18.7577 23.1734 18.7986 23.4077 18.5605 23.5548C18.3623 23.6772 18.2037 23.6426 18.0177 23.3424L17.2863 22.1621L16.4613 22.672L17.2855 24.0025C17.6731 24.6278 18.1475 24.7384 18.5998 24.4591C18.9408 24.2481 19.0519 24.0829 19.1155 23.7798L19.3107 23.9332ZM19.0953 21.0443L19.8529 20.576L20.0507 20.7333C20.0504 20.5027 20.232 20.2596 20.4726 20.1065C20.8422 19.8709 21.1552 19.9152 21.3989 20.0875C21.4147 19.7144 21.5634 19.4321 21.8688 19.2433C22.4758 18.8682 22.8884 19.1093 23.258 19.7056L24.059 20.9984L23.234 21.5085L22.5439 20.395C22.345 20.0737 22.2055 19.9813 21.9872 20.1162C21.7453 20.2657 21.8346 20.5162 21.9974 20.7788L22.6665 21.859L21.8415 22.3689L21.1517 21.2555C20.9528 20.9342 20.813 20.8419 20.5949 20.9766C20.353 21.1262 20.4422 21.3767 20.6051 21.6394L21.2744 22.7195L20.4493 23.2295L19.0953 21.0443ZM29.2755 17.7743L27.9216 15.5889L27.0964 16.0989L28.4503 18.2842L29.2755 17.7743ZM27.7483 15.3093L26.9232 15.8194L26.5407 15.2022L27.3659 14.6921L27.7483 15.3093ZM29.1143 14.8517L28.3608 15.3174L29.7148 17.5028L30.5397 16.9928L29.8498 15.8792C29.6767 15.5998 29.6381 15.3872 29.892 15.2302C30.1261 15.0857 30.3005 15.2431 30.4349 15.46L31.1506 16.6152L31.9757 16.1051L31.1643 14.7957C30.7922 14.1952 30.3251 14.0168 29.7776 14.3549C29.4642 14.5488 29.3742 14.7892 29.3559 15.0151L29.1143 14.8517ZM23.0605 18.5933L23.8182 18.1252L24.0159 18.2825C24.0157 18.0519 24.1973 17.8088 24.438 17.6556C24.8075 17.4201 25.1204 17.4645 25.3643 17.6367C25.38 17.2636 25.5288 16.9812 25.8343 16.7926C26.4411 16.4174 26.8538 16.6584 27.2232 17.2548L28.0243 18.5475L27.1992 19.0576L26.5093 17.9441C26.3104 17.623 26.1706 17.5305 25.9526 17.6653C25.7106 17.8149 25.7999 18.0654 25.9627 18.3279L26.6319 19.4081L25.8068 19.9182L25.117 18.8046C24.9179 18.4835 24.7784 18.391 24.5601 18.5258C24.3182 18.6755 24.4077 18.9258 24.5702 19.1885L25.2397 20.2688L24.4146 20.7788L23.0605 18.5933ZM13.8122 25.109C14.3622 25.9968 15.5289 26.271 16.4177 25.7215L17.4905 25.0584L16.9704 24.2189L16.0426 24.7926C15.618 25.0548 15.0605 24.9238 14.7978 24.4997C14.5349 24.0757 14.6662 23.519 15.0908 23.2565L16.0188 22.6829L15.4988 21.8436L14.4256 22.5066C13.5367 23.056 13.2619 24.2211 13.8122 25.109Z" fill="white"/>
</svg>
